<svg xmlns="http://www.w3.org/2000/svg" viewBox="0 0 216.26 204.37"><defs><style>.cls-1{fill:#a8c7e8;}.cls-2{fill:#f8d754;}.cls-3{fill:#f28f4d;stroke:#f28f4d;stroke-linecap:round;stroke-linejoin:round;stroke-width:10px;}</style></defs><g id="Capa_2" data-name="Capa 2"><path class="cls-1" d="M132,268.94c-1.8-3-1.77-4.46.36-6.93a21.12,21.12,0,0,1,4.6-4.51c2.4-1.45,3.74-3.72,5.57-5.79.05-1.26.34-2.54-.64-4a12.54,12.54,0,0,1-1.38-4.41c-.37-1.75-.89-4.17-3.34-4.27-.54-1.31-1.31-2.42-1.39-3.58s.53-2.38.87-3.71l-1.24-1.32-13.79,4.46-1.52,2.21c-1.26-3.93.43-7.62.75-11.4.07-.84,4.6-6.55,5.61-7.41,4-3.37,7.13-7.49,10.21-11.66.13-.18-.07-.61-.15-1.1-6.9,1-9.71,7.82-15,10.62h-4.83c.7-3.4,1.29-6.55,3.78-9,4.45-4.39,8.84-8.83,13-13.8a6.12,6.12,0,0,0-1.87.76c-1.13,1-2.14,2.08-3.42,3.36-.42-2.94-3.51-2.41-5.07-4.27-1.61-2.12,1.11-4,.68-6.2,2.94-3.16,4.36-7.66,8.1-10a28.92,28.92,0,0,0,5.48-4.7c1.89-2,3.54-4.15,5.11-6,1.1-3-.71-5.38-2-7.19a14.86,14.86,0,0,1-3-7.26c0-.26-.44-.48-.68-.71,1.55-1,.8-2.67,1.05-4.17,2.23-1.33,3.67-3.65,5.43-5.55,3.45-3.74,8.44-5.12,11.92-8.67.28-.28,1-.1,1.3-.39,4-4.43,9.64-5.46,14.75-7.68q7.18-3.14,14.59-5.62c5.25-1.74,10.17-4.31,15.69-5.46a26.2,26.2,0,0,0,6.91-2.42c3.06-1.64,6.78-1.16,9.57-3.37,4.46-.09,8.3-2.37,12.45-3.56a44.91,44.91,0,0,1,5.39-1.39,117,117,0,0,0,15.47-3.51c1.2-.36,2.53-.26,3.77-.52,1.05-.22,2-.76,3.08-.95,4.19-.76,8.39-1.52,12.57-2.24,4.73-.8,9.58-1.08,14.29-2.58,3.89-1.25,8.28-.93,12.26-1.29,2.06,1.36,3,3.8,5.6,4.31v7.42a47.6,47.6,0,0,1-9.26,2.57c-3,.58-6,1.67-9.14,1.87l-4.79,3.38,2.08.78-.42.69c3.95,0,7.9.08,11.84,0,1.36,0,2.69-.7,4.07-.93,2.6-.43,5,.58,7,1.1l4.76,5.56v3.74c-1.93,2.62-4.79,3.38-7.88,3.5-2.32.1-4.66-.11-7,.06-2,.15-4,.84-6.06.9a17.76,17.76,0,0,0-5.56,1c-1.77.63-3.49,1.24-4.87,3.33,2.84,1.17,5.14,2.67,8,2.67,5,0,9.95.07,14.93,0,2.53,0,4.88-1.36,7.55-1,3.33.42,6.83-.73,10.12,1l3.47,4,1,5.24,3.23,2.1c-1.17,1.67-3.47,2.42-3,5.19l3.11,2.58c-1.62,3.26-1.6,3.65.41,8l2-1.11,1.19,1.19c-.57,1.21-1.19,2.51-2,4.24l2.49,1.4c-.48,2.43-.72,4.45-1.3,6.36s-1.47,3.71-2.4,6l3.37,1.88v6l2.55,3-2.52,1.1,1.23,6.27-1.9.52c-.95,2.31.11,4.31,1.64,6.37.69,2-1.24,4.52,2.16,6.66l-3,1.29v4.94c-.45.22-.72.46-1,.47-2.16,0-4.32-.11-6.47,0a56.86,56.86,0,0,0-6.05,1,4.15,4.15,0,0,0-1.69.71,8.09,8.09,0,0,1-5.79,1.24l-4,4.19v3.19l-3.25,2,1.84,1.42,1.27,7.12c-3.9,0-7.84-.15-11.76.06-2.18.12-4.38-.71-6.64.81-1.56,1-4.21-.79-6,1.12-3.57-.32-6.8,1.13-10.11,2a22.66,22.66,0,0,0-4.3,2.22c.49,3.57,3.27,2.38,6,3.05-8.72,2.47-16.54,4.51-24,8.05l2.75,1.41c2.16-2.35,5.39.12,8.13-1.66,2.08-1.35,5.18,0,8-.93,2.54-.82,5.62-.82,8.47-1.17a68.7,68.7,0,0,1,8.37-.07c.76,1.91-.37,2.65-1.66,3-7.36,1.75-14,5.67-21.48,7-1.05,2-3.31.3-4.85,1.64-1.14,1-3.23.87-4.87,1.33-.88.24-1.71.67-2.58,1-2,.71-3.78,1.93-6.12,2.15a5.1,5.1,0,0,0-4.74,4.52l1.66,1.66a6.92,6.92,0,0,1-.42.68c-1.87,2.32-4.88,2.25-7.27,2.77-7.3,1.58-14.47,3.66-21.77,5.23-5.57,1.19-11,3.19-16.48,4.63-3.62.94-7.34,1.51-11,2.27a9.12,9.12,0,0,0-1.74.58c-3.18,1.42-6.71,1.32-10,2.37-.21.07-.54-.25-.86-.41l.92-1.05c-.23-.16-.5-.51-.71-.48-2,.29-4,.6-6.06,1-1.86.35-3.76-.63-5.66.83-1.25,1-3.59-.67-5,1.15-3.58-.42-6.92,1.77-10.53,1-1.51-.32-3-.67-4.66-1-.92-3.56,1.05-6.2,3-8.51s3.71-4.48,6.51-5.78a5.77,5.77,0,0,0,3.05-3.12c.43-1.7,1.67-2.4,2.64-3.39,5.1-5.22,10.29-10.33,15.87-15.9a17.69,17.69,0,0,0-6.86,2c-6.9,3-13.65,6.29-20.5,9.38-1,.44-2.6.88-3.2.4C136.44,268.42,134.3,269.46,132,268.94Z" transform="translate(-116.66 -91.76)"/></g><g id="Capa_1" data-name="Capa 1"><path class="cls-2" d="M210,246.16c0-1.22,0-2.45,0-3.68a51.8,51.8,0,0,1,1.69-11.29c.77-3.36,2.52-6.46,4-9.62,1.15-2.46,2.45-4.89,3.73-7.31a40.66,40.66,0,0,0,3.29-9.43,126,126,0,0,0,2.27-13,56.64,56.64,0,0,1,3-11.31,79.66,79.66,0,0,1,3.15-7.84,46.83,46.83,0,0,1,8.67-12.14,44,44,0,0,1,11.09-8.43,28.63,28.63,0,0,1,15.55-3.5,25.08,25.08,0,0,1,4.51.71,31.28,31.28,0,0,1,11.5,5.62,37.67,37.67,0,0,1,10.4,12.44,76.18,76.18,0,0,1,4.88,11.81c2.18,6.61,3.78,13.33,5.39,20q2.47,10.34,4.36,20.73c.59,3.24,1.17,6.47,1.71,9.71.23,1.39.35,2.79.5,4.19a82.15,82.15,0,0,1,.46,14.87,33,33,0,0,1-4.64,15.94,14,14,0,0,1-6.26,5.5,12.31,12.31,0,0,1-11-.19,14.47,14.47,0,0,1-6.32-6.15,29,29,0,0,1-3.37-9.58c-.32-2-.77-3.92-1.05-5.9-.29-2.14-.41-4.3-.68-6.45a16.24,16.24,0,0,0-.74-3.44c-.85-2.34-2.94-3.55-6-3.67a50.43,50.43,0,0,0-7.87.5l-10.85,1.3c-.51.06-1,.14-1.52.19-3.48.39-5.47,2.11-6.31,4.69-.62,1.92-1,3.9-1.46,5.84a42.55,42.55,0,0,1-5.67,13.41,23.4,23.4,0,0,1-5.87,6.29,12.89,12.89,0,0,1-8.59,2.54,8.78,8.78,0,0,1-5.53-2.22,17.09,17.09,0,0,1-5.05-8.45C210.18,254.44,209.89,252,210,246.16Zm64.61-44.43a39.09,39.09,0,0,0-1.11-9.73,35.84,35.84,0,0,0-2.24-7.12,13.87,13.87,0,0,0-3.12-4.39,8.76,8.76,0,0,0-9.54-1.2,8.08,8.08,0,0,0-2.5,1.93,17.42,17.42,0,0,0-2.92,4.88,118.92,118.92,0,0,0-4.41,13.55c-.7,2.5-1.11,5-1.66,7.58a5.86,5.86,0,0,0,.89,4.41,4.46,4.46,0,0,0,3.28,2.13,19.26,19.26,0,0,0,3,.34,69.58,69.58,0,0,0,12.16-1.17,13.28,13.28,0,0,0,1.88-.48c3-1,5-2.7,5.73-5.33A19.24,19.24,0,0,0,274.64,201.73Z" transform="translate(-116.66 -91.76)"/><path class="cls-3" d="M220.66,186.83c-.19,3.33-.29,6.89-.62,10.44a62.39,62.39,0,0,1-3.3,13.56A75.15,75.15,0,0,1,211,223.12c-2.86,5-4.58,6.68-5.22,7.28a27.69,27.69,0,0,1-6.82,4.65,36,36,0,0,1-6.75,2.6,42.5,42.5,0,0,1-7.62,1.48,36.23,36.23,0,0,1-7.65,0,52.54,52.54,0,0,1-12.19-2.83,34.64,34.64,0,0,1-14.13-9.2,16.49,16.49,0,0,1-1.82-2.4,109,109,0,0,1-7.61-14,21.68,21.68,0,0,1-1.6-6.32,44,44,0,0,1-.27-7.52,45.21,45.21,0,0,1,.83-7.67,21.52,21.52,0,0,1,5.43-9.67,18.39,18.39,0,0,1,3.5-2.89,10.9,10.9,0,0,1,8.31-1.27,11.93,11.93,0,0,1,5.8,3,12.35,12.35,0,0,1,2.32,3,13.41,13.41,0,0,1,.94,2.15,26.2,26.2,0,0,1,1.15,6.39c.38,4.54.57,6.82.78,7.68a15.43,15.43,0,0,0,2.42,5.85,10.46,10.46,0,0,0,3.86,3.53,9.11,9.11,0,0,0,7.93.27,12.14,12.14,0,0,0,2.37-1.37,13.13,13.13,0,0,0,2.63-2.71,23.44,23.44,0,0,0,3.46-6.06c1.11-2.93,1.32-5.36,1.65-9.28.16-1.87.21-3.82.21-3.82.05-2.12,0-3.5-.08-5.34-.2-5.53,0-5.06-.22-9-.06-1.22-.2-3.58-.52-6.54-.11-1-.24-2.07-.45-3.34a49.6,49.6,0,0,0-2-7.78c-1.05-3.18-1.35-3.36-3.27-8.24-1.83-4.66-2.79-7.05-3.37-10.15a22.24,22.24,0,0,1-.15-8.37,9.86,9.86,0,0,1,4.74-6.71,12.12,12.12,0,0,1,11.69-.89,21.09,21.09,0,0,1,7.31,5.44,37.71,37.71,0,0,1,5.62,8.9c.14.3.87,1.68,1.75,3.59a64.28,64.28,0,0,1,3.65,9.45,55.25,55.25,0,0,1,1.57,7.47,85.22,85.22,0,0,1,.83,10.09c.21,4.59.25,8.37.28,11,0,3,0,4.55.11,7.75S220.75,185.14,220.66,186.83Z" transform="translate(-116.66 -91.76)"/></g></svg>